<svg width="31" height="31" viewBox="0 0 31 31" fill="none" xmlns="http://www.w3.org/2000/svg">
    <g filter="url(#filter0_d_1_398)">
        <path d="M15.6758 24.3601C21.1963 24.3601 25.6716 19.8848 25.6716 14.3642C25.6716 8.8437 21.1963 4.36841 15.6758 4.36841C10.1552 4.36841 5.67993 8.8437 5.67993 14.3642C5.67993 19.8848 10.1552 24.3601 15.6758 24.3601Z" stroke="#000" stroke-width="1.99917" stroke-linecap="round" stroke-linejoin="round"/>
        <path d="M15.6757 20.3618C18.9881 20.3618 21.6732 17.6766 21.6732 14.3643C21.6732 11.0519 18.9881 8.36676 15.6757 8.36676C12.3634 8.36676 9.67822 11.0519 9.67822 14.3643C9.67822 17.6766 12.3634 20.3618 15.6757 20.3618Z" stroke="#000" stroke-width="1.99917" stroke-linecap="round" stroke-linejoin="round"/>
        <path d="M15.6757 16.3634C16.7798 16.3634 17.6748 15.4684 17.6748 14.3643C17.6748 13.2602 16.7798 12.3651 15.6757 12.3651C14.5716 12.3651 13.6765 13.2602 13.6765 14.3643C13.6765 15.4684 14.5716 16.3634 15.6757 16.3634Z" stroke="#000" stroke-width="1.99917" stroke-linecap="round" stroke-linejoin="round"/>
    </g>
</svg>
