<svg width="49" height="49" viewBox="0 0 49 49" fill="none" xmlns="http://www.w3.org/2000/svg">
<path d="M0.0910645 16.5891C0.0910645 7.75251 7.25451 0.58905 16.0911 0.58905H32.0711C40.9076 0.58905 48.0711 7.7525 48.0711 16.5891V32.5691C48.0711 41.4056 40.9076 48.5691 32.0711 48.5691H16.0911C7.25452 48.5691 0.0910645 41.4056 0.0910645 32.5691V16.5891Z" fill="#FFEB3B" fill-opacity="0.2"/>
<path d="M32.0778 22.5799C32.0778 27.5708 26.5411 32.7687 24.6819 34.374C24.5087 34.5042 24.2978 34.5747 24.0811 34.5747C23.8644 34.5747 23.6536 34.5042 23.4804 34.374C21.6212 32.7687 16.0845 27.5708 16.0845 22.5799C16.0845 20.4591 16.927 18.4251 18.4266 16.9254C19.9263 15.4258 21.9603 14.5833 24.0811 14.5833C26.202 14.5833 28.236 15.4258 29.7356 16.9254C31.2353 18.4251 32.0778 20.4591 32.0778 22.5799Z" stroke="#FFEB3B" stroke-width="1.99917" stroke-linecap="round" stroke-linejoin="round"/>
<path d="M24.0813 25.5787C25.7374 25.5787 27.08 24.2361 27.08 22.5799C27.08 20.9238 25.7374 19.5812 24.0813 19.5812C22.4251 19.5812 21.0825 20.9238 21.0825 22.5799C21.0825 24.2361 22.4251 25.5787 24.0813 25.5787Z" stroke="#FFEB3B" stroke-width="1.99917" stroke-linecap="round" stroke-linejoin="round"/>
</svg>
