<svg width="21" height="21" viewBox="0 0 21 21" fill="none" xmlns="http://www.w3.org/2000/svg">
    <g clip-path="url(#clip0_1_482)">
        <path d="M2.64345 14.5433C2.76593 14.8523 2.7932 15.1908 2.72175 15.5154L1.83462 18.2559C1.80603 18.3949 1.81342 18.5389 1.85609 18.6742C1.89875 18.8095 1.97528 18.9317 2.07841 19.0292C2.18153 19.1266 2.30785 19.1961 2.44536 19.2311C2.58288 19.266 2.72705 19.2652 2.86419 19.2288L5.70717 18.3975C6.01347 18.3368 6.33069 18.3633 6.62262 18.4742C8.40137 19.3048 10.4163 19.4806 12.312 18.9704C14.2077 18.4602 15.8623 17.2969 16.9839 15.6856C18.1054 14.0744 18.6219 12.1188 18.4421 10.1639C18.2623 8.20901 17.3979 6.38042 16.0013 5.00077C14.6047 3.62112 12.7656 2.77906 10.8087 2.62318C8.85175 2.46729 6.90262 3.00759 5.30521 4.14874C3.7078 5.2899 2.56476 6.95858 2.07776 8.86036C1.59077 10.7622 1.79111 12.7748 2.64345 14.5433Z" stroke="#000" stroke-width="1.66597" stroke-linecap="round" stroke-linejoin="round"/>
    </g>
</svg>
