<svg width="49" height="49" viewBox="0 0 49 49" fill="none" xmlns="http://www.w3.org/2000/svg">
<path d="M0.0910645 16.0625C0.0910645 7.2259 7.25451 0.062439 16.0911 0.062439H32.0711C40.9076 0.062439 48.0711 7.22588 48.0711 16.0624V32.0424C48.0711 40.879 40.9076 48.0425 32.0711 48.0425H16.0911C7.25452 48.0425 0.0910645 40.879 0.0910645 32.0425V16.0625Z"/>
<path d="M25.9125 28.6185C26.119 28.7133 26.3515 28.735 26.5719 28.6799C26.7923 28.6249 26.9874 28.4964 27.125 28.3157L27.4799 27.8508C27.6661 27.6026 27.9076 27.401 28.1851 27.2622C28.4627 27.1234 28.7688 27.0512 29.0792 27.0512H32.078C32.6082 27.0512 33.1167 27.2618 33.4916 27.6367C33.8665 28.0116 34.0771 28.5201 34.0771 29.0503V32.0491C34.0771 32.5793 33.8665 33.0878 33.4916 33.4627C33.1167 33.8376 32.6082 34.0483 32.078 34.0483C27.306 34.0483 22.7296 32.1526 19.3553 28.7784C15.9811 25.4041 14.0854 20.8277 14.0854 16.0558C14.0854 15.5255 14.2961 15.0171 14.671 14.6421C15.0459 14.2672 15.5544 14.0566 16.0846 14.0566H19.0834C19.6136 14.0566 20.1221 14.2672 20.497 14.6421C20.8719 15.0171 21.0825 15.5255 21.0825 16.0558V19.0545C21.0825 19.3649 21.0103 19.671 20.8715 19.9486C20.7327 20.2262 20.5312 20.4676 20.2829 20.6538L19.8151 21.0047C19.6316 21.1448 19.5022 21.3441 19.449 21.5688C19.3958 21.7935 19.422 22.0296 19.5232 22.2372C20.8893 25.0119 23.1361 27.2559 25.9125 28.6185Z" stroke="#000" stroke-width="1.99917" stroke-linecap="round" stroke-linejoin="round"/>
</svg>
