<svg width="49" height="49" viewBox="0 0 49 49" fill="none" xmlns="http://www.w3.org/2000/svg">
<path d="M0.0910645 16.4169C0.0910645 7.58033 7.25451 0.41687 16.0911 0.41687H32.0711C40.9076 0.41687 48.0711 7.58032 48.0711 16.4169V32.3969C48.0711 41.2334 40.9076 48.3969 32.0711 48.3969H16.0911C7.25452 48.3969 0.0910645 41.2334 0.0910645 32.3969V16.4169Z" fill="#FFEB3B" fill-opacity="0.2"/>
<path d="M29.0792 14.411H19.0834C16.3231 14.411 14.0854 16.6487 14.0854 19.409V29.4048C14.0854 32.1651 16.3231 34.4027 19.0834 34.4027H29.0792C31.8395 34.4027 34.0771 32.1651 34.0771 29.4048V19.409C34.0771 16.6487 31.8395 14.411 29.0792 14.411Z" stroke="#FFEB3B" stroke-width="1.99917" stroke-linecap="round" stroke-linejoin="round"/>
<path d="M28.0794 23.7771C28.2028 24.609 28.0607 25.4586 27.6733 26.2051C27.286 26.9516 26.6731 27.557 25.9219 27.9351C25.1707 28.3132 24.3194 28.4448 23.4891 28.3112C22.6588 28.1775 21.8917 27.7855 21.2971 27.1909C20.7024 26.5962 20.3104 25.8291 20.1768 24.9988C20.0432 24.1685 20.1748 23.3172 20.5529 22.566C20.931 21.8148 21.5363 21.2019 22.2828 20.8146C23.0293 20.4273 23.8789 20.2852 24.7108 20.4085C25.5594 20.5343 26.345 20.9298 26.9516 21.5364C27.5582 22.1429 27.9536 22.9285 28.0794 23.7771Z" stroke="#FFEB3B" stroke-width="1.99917" stroke-linecap="round" stroke-linejoin="round"/>
<path d="M29.5789 18.9091H29.5889" stroke="#FFEB3B" stroke-width="1.99917" stroke-linecap="round" stroke-linejoin="round"/>
</svg>
