<svg width="49" height="49" viewBox="0 0 49 49" fill="none" xmlns="http://www.w3.org/2000/svg">
<path d="M0.0910645 16.2397C0.0910645 7.40311 7.25451 0.239655 16.0911 0.239655H32.0711C40.9076 0.239655 48.0711 7.4031 48.0711 16.2397V32.2197C48.0711 41.0562 40.9076 48.2197 32.0711 48.2197H16.0911C7.25452 48.2197 0.0910645 41.0562 0.0910645 32.2197V16.2397Z" fill="#FFEB3B" fill-opacity="0.2"/>
<path d="M15.077 28.5699C15.2239 28.9406 15.2567 29.3469 15.1709 29.7364L14.1064 33.025C14.0721 33.1918 14.0809 33.3645 14.1321 33.5269C14.1833 33.6893 14.2752 33.8359 14.3989 33.9529C14.5227 34.0698 14.6742 34.1532 14.8393 34.1952C15.0043 34.2371 15.1773 34.2362 15.3419 34.1925L18.7534 33.1949C19.121 33.122 19.5017 33.1539 19.852 33.2869C21.9865 34.2837 24.4045 34.4946 26.6793 33.8824C28.9541 33.2701 30.9396 31.8741 32.2855 29.9407C33.6314 28.0072 34.2511 25.6605 34.0354 23.3146C33.8196 20.9687 32.7823 18.7744 31.1064 17.1188C29.4304 15.4632 27.2236 14.4528 24.8753 14.2657C22.5269 14.0786 20.188 14.727 18.2711 16.0964C16.3542 17.4658 14.9825 19.4682 14.3981 21.7503C13.8138 24.0325 14.0542 26.4477 15.077 28.5699Z" stroke="#FFEB3B" stroke-width="1.99917" stroke-linecap="round" stroke-linejoin="round"/>
</svg>
