<svg width="19" height="19" viewBox="0 0 19 19" fill="none" xmlns="http://www.w3.org/2000/svg">
    <g clip-path="url(#clip0_88_1098)">
        <path d="M9.08916 2.31766H3.84387C3.4464 2.31766 3.06521 2.47555 2.78416 2.7566C2.50311 3.03766 2.34521 3.41884 2.34521 3.81631V14.3069C2.34521 14.7044 2.50311 15.0855 2.78416 15.3666C3.06521 15.6477 3.4464 15.8055 3.84387 15.8055H14.3344C14.7319 15.8055 15.1131 15.6477 15.3942 15.3666C15.6752 15.0855 15.8331 14.7044 15.8331 14.3069V9.0616" stroke="#000" stroke-width="1.49865" stroke-linecap="round" stroke-linejoin="round"/>
        <path d="M13.8661 2.03666C14.1642 1.73856 14.5685 1.57109 14.9901 1.57109C15.4117 1.57109 15.816 1.73856 16.1141 2.03666C16.4122 2.33476 16.5797 2.73908 16.5797 3.16065C16.5797 3.58223 16.4122 3.98654 16.1141 4.28464L9.36043 11.0391C9.1825 11.2169 8.96269 11.347 8.72125 11.4175L6.56844 12.0469C6.50396 12.0657 6.43561 12.0669 6.37055 12.0502C6.30548 12.0335 6.2461 11.9997 6.1986 11.9522C6.15111 11.9047 6.11726 11.8453 6.10059 11.7802C6.08392 11.7152 6.08505 11.6468 6.10385 11.5823L6.73329 9.42952C6.80412 9.18828 6.93451 8.96873 7.11245 8.7911L13.8661 2.03666Z" stroke="#000" stroke-width="1.49865" stroke-linecap="round" stroke-linejoin="round"/>
    </g>
</svg>
