<svg width="21" height="21" viewBox="0 0 21 21" fill="none" xmlns="http://www.w3.org/2000/svg">
    <path d="M3.37415 10.9264C3.37415 12.4092 3.81383 13.8586 4.6376 15.0915C5.46136 16.3243 6.63222 17.2852 8.00209 17.8527C9.37197 18.4201 10.8793 18.5685 12.3336 18.2793C13.7878 17.99 15.1237 17.276 16.1721 16.2275C17.2206 15.1791 17.9346 13.8433 18.2239 12.389C18.5131 10.9348 18.3647 9.42739 17.7972 8.05751C17.2298 6.68764 16.2689 5.51678 15.0361 4.69302C13.8032 3.86925 12.3538 3.42957 10.871 3.42957C8.77519 3.43745 6.76354 4.25524 5.25669 5.71195L3.37415 7.5945" stroke="#000" stroke-width="1.66597" stroke-linecap="round" stroke-linejoin="round"/>
    <path d="M3.37415 3.42957V7.5945H7.53908" stroke="#000" stroke-width="1.66597" stroke-linecap="round" stroke-linejoin="round"/>
    <path d="M10.8711 6.76147V10.9264L14.203 12.5924" stroke="#000" stroke-width="1.66597" stroke-linecap="round" stroke-linejoin="round"/>
</svg>
