<svg width="25" height="25" viewBox="0 0 25 25" fill="none" xmlns="http://www.w3.org/2000/svg">
    <path d="M15.4973 21.9226V13.926C15.4973 13.6609 15.3919 13.4066 15.2045 13.2192C15.017 13.0317 14.7628 12.9264 14.4977 12.9264H10.4993C10.2342 12.9264 9.97999 13.0317 9.79253 13.2192C9.60507 13.4066 9.49976 13.6609 9.49976 13.926V21.9226" stroke="#000" stroke-width="1.99917" stroke-linecap="round" stroke-linejoin="round"/>
    <path d="M3.50232 10.9272C3.50225 10.6364 3.56563 10.3491 3.68803 10.0853C3.81043 9.82151 3.98891 9.58759 4.21102 9.39988L11.2081 3.40337C11.5689 3.09841 12.0261 2.93109 12.4986 2.93109C12.971 2.93109 13.4282 3.09841 13.789 3.40337L20.7861 9.39988C21.0082 9.58759 21.1867 9.82151 21.3091 10.0853C21.4315 10.3491 21.4949 10.6364 21.4948 10.9272V19.9235C21.4948 20.4537 21.2842 20.9622 20.9093 21.3371C20.5344 21.712 20.0259 21.9227 19.4957 21.9227H5.50149C4.97127 21.9227 4.46278 21.712 4.08786 21.3371C3.71295 20.9622 3.50232 20.4537 3.50232 19.9235V10.9272Z" stroke="#000" stroke-width="1.99917" stroke-linecap="round" stroke-linejoin="round"/>
</svg>
