<svg width="21" height="21" viewBox="0 0 21 21" fill="none" xmlns="http://www.w3.org/2000/svg">
    <path d="M12.5828 2.30847H5.08589C4.64405 2.30847 4.2203 2.48399 3.90787 2.79642C3.59544 3.10885 3.41992 3.5326 3.41992 3.97444V17.3022C3.41992 17.7441 3.59544 18.1678 3.90787 18.4802C4.2203 18.7927 4.64405 18.9682 5.08589 18.9682H15.0817C15.5236 18.9682 15.9473 18.7927 16.2598 18.4802C16.5722 18.1678 16.7477 17.7441 16.7477 17.3022V6.4734L12.5828 2.30847Z" stroke="#000" stroke-width="1.66597" stroke-linecap="round" stroke-linejoin="round"/>
    <path d="M11.7495 2.30847V5.64042C11.7495 6.08226 11.925 6.50601 12.2375 6.81844C12.5499 7.13087 12.9736 7.30639 13.4155 7.30639H16.7474" stroke="#000" stroke-width="1.66597" stroke-linecap="round" stroke-linejoin="round"/>
    <path d="M8.41862 8.1394H6.75195" stroke="#000" stroke-width="1.66597" stroke-linecap="round" stroke-linejoin="round"/>
    <path d="M13.4158 11.4714H6.75195" stroke="#000" stroke-width="1.66597" stroke-linecap="round" stroke-linejoin="round"/>
    <path d="M13.4158 14.8033H6.75195" stroke="#000" stroke-width="1.66597" stroke-linecap="round" stroke-linejoin="round"/>
</svg>
