<svg width="21" height="21" viewBox="0 0 21 21" fill="none" xmlns="http://www.w3.org/2000/svg">
    <g clip-path="url(#clip0_1_316)">
        <path d="M8.63452 18.4817C8.78075 18.7349 8.99105 18.9452 9.2443 19.0914C9.49756 19.2376 9.78483 19.3146 10.0773 19.3146C10.3697 19.3146 10.657 19.2376 10.9102 19.0914C11.1635 18.9452 11.3738 18.7349 11.52 18.4817" stroke="#000" stroke-width="1.66597" stroke-linecap="round" stroke-linejoin="round"/>
        <path d="M2.79844 13.7553C2.68963 13.8746 2.61781 14.0229 2.59174 14.1823C2.56567 14.3416 2.58647 14.5051 2.65159 14.6528C2.71672 14.8005 2.82338 14.9261 2.95859 15.0144C3.0938 15.1026 3.25174 15.1496 3.41319 15.1498H16.741C16.9024 15.1498 17.0604 15.103 17.1957 15.0149C17.331 14.9268 17.4378 14.8014 17.5031 14.6537C17.5684 14.5061 17.5894 14.3427 17.5635 14.1833C17.5376 14.024 17.466 13.8756 17.3574 13.7562C16.2495 12.6141 15.075 11.4005 15.075 7.65288C15.075 6.32735 14.5484 5.05611 13.6111 4.11882C12.6739 3.18153 11.4026 2.65496 10.0771 2.65496C8.75155 2.65496 7.48031 3.18153 6.54302 4.11882C5.60573 5.05611 5.07916 6.32735 5.07916 7.65288C5.07916 11.4005 3.90382 12.6141 2.79844 13.7553Z" stroke="#000" stroke-width="1.66597" stroke-linecap="round" stroke-linejoin="round"/>
    </g>
</svg>
