<?xml version="1.0" encoding="UTF-8"?>
<svg xmlns="http://www.w3.org/2000/svg" xml:space="preserve" viewBox="4400 1100 11000 10000" version="1.1"
    style="shape-rendering:geometricPrecision; text-rendering:geometricPrecision; image-rendering:optimizeQuality; fill-rule:evenodd; clip-rule:evenodd">
    <defs>
        <style type="text/css">
            <![CDATA[
            .fil0 {
                fill: #ffffff
            }
            ]]>
        </style>
    </defs>
    <g id="Слой_x0020_1">
        <metadata id="CorelCorpID_0Corel-Layer" />
        <g id="_1999192368720">
            <path class="fil0"
                d="M8295.74 2140.69c0,59.72 26.71,112.01 57.66,142.67 50.98,50.48 95.47,66.37 168.8,66.37 72.14,0 135.23,-55 163.69,-101.96 54.98,-90.69 151.67,-232.98 233.27,-298.05 46.49,-37.08 64,-68.12 145.67,-124.34l163.72 -101.93c42.95,-26.11 89.57,-44.8 136.62,-63.72l150.84 -49.49c243.05,-60.04 467.09,-64.27 708.99,-0.84 66.98,17.56 134.29,43.52 196.63,69.03 119.98,49.1 230.84,123.75 331,204.65 98.2,79.33 184.58,180.39 254.6,285.42l51.1 83.92c21.98,40.44 82.02,141.41 85.6,184.41 -100.2,23.35 -198.13,57.06 -290.28,101.66l-87.1 43.57c-126.51,63.69 -227.46,143.09 -331.43,234.72 -61.37,54.07 -114.29,109.66 -114.29,199.27 0,159.33 164.41,250.61 303.48,185.9 31.6,-14.71 42.97,-29.12 65.59,-52l62.07 -55.51c12.4,-9.56 19.59,-16.99 33.59,-27.39l67.77 -49.8c306.62,-221.36 751.7,-263.27 1095.66,-135.58 81.85,30.39 164.09,71.39 237.6,119.52l119.52 89.5c49.27,39.77 94.49,85.93 136.66,133.36l54.35 67.6c207.01,277.25 290.16,647.69 209.42,995.21 -26.08,112.23 -64.96,221.75 -123.59,320.64 -27.86,46.97 -54.69,91.71 -88.35,133.75l-179.78 190.41c-13.98,11.29 -25.33,21.83 -40.42,33.61 -71.76,56.03 -145.72,99.44 -228.98,141.2 -115.95,58.17 -305.23,113.23 -479.05,113.23 -287.42,0 -514.04,-39.3 -763.58,-164.03l-119.65 -67.63c-70.58,-44.42 -158.2,-102.36 -217.53,-161.36l-50 -45.8c-48.15,-44.61 -96,-90.08 -139.39,-139.34 -161.29,-183.16 -311.99,-398.67 -428.6,-612.26 -33.31,-61.03 -71.83,-116.14 -107.85,-175.23 -12.7,-20.83 -24.92,-37.65 -38.23,-57.57l-318.88 -434.54c-71.15,-91.05 -250.02,-267.81 -329.75,-332.21 -113.94,-92.02 -264.58,-206.2 -400.67,-261.31l-97.71 -41.64c-282.44,-107.26 -557.12,-121.62 -855.8,-59.49 -188,39.11 -364.58,124.18 -523.15,230.27 -19.4,12.96 -33.25,24.53 -53.14,38.31 -51.93,35.95 -109.96,89.31 -153.91,133.52l-43.48 47.98c-48.11,47.84 -85.28,102.27 -126.22,156.86 -52.97,70.61 -103.57,160.16 -136.84,242.05 -8.42,20.71 -17.72,40 -27.41,64.05 -27.82,69.12 -52.18,142.04 -67.44,215.63 -74.13,357.64 -39.85,668.58 105.6,982.45 20.44,44.12 44.51,87.87 68.45,127.53l142.85 201.19c8.78,10.87 15.74,15.41 24.95,27.31 27.12,35.06 87,96.36 123.79,124.45l81.39 66.69c44.82,36.59 95.31,69.07 144.18,99.7 52.01,32.61 107.68,58.9 163.45,84.78l141.73 54.25c103.12,34.47 216.89,61.64 327.34,68.97 59.89,3.98 127.64,11.89 187.76,5.14l95.17 -4.99 0 1728.95c0,92.03 37.47,186.7 86.41,253.27 86.5,117.67 221.16,190.95 375.22,190.95l287.43 0c10.04,0 13.07,-3.03 13.07,-13.06l0 -387.61c0,-15.21 -10.67,-13.35 -25.65,-13.55 -291.34,-3.87 -244.37,31.28 -244.37,-378.4l0 -1985.9c-15.78,1.31 -20.26,7.43 -32.23,15.67 -10.98,7.57 -18.49,11.72 -29.53,18.38 -21.56,13.01 -42.28,24.58 -64.53,35.63 -247.43,123.04 -494.99,150.16 -766.9,91.86 -100.07,-21.44 -191.88,-63.45 -279.65,-112.29 -81.4,-45.28 -156.79,-105.03 -221.86,-170.1 -185.33,-185.33 -321.18,-447.47 -321.18,-724.03 0,-89.15 1.4,-174.74 18.51,-260.21 9.04,-45.18 20.36,-100.37 36.82,-141.73 16.86,-42.35 29.54,-86.44 52.11,-126.44 47.5,-84.19 94.42,-169.72 161.39,-239.28l67.56 -67.45c78.86,-69.33 104.56,-95.54 202.77,-154.35 115.82,-69.34 258.3,-116.39 398.92,-136.74 103.65,-15.01 224.69,-12.02 328.12,8.08 136.97,26.62 268.37,82.8 383.53,152.12 38.13,22.95 68.52,45.26 104.51,69.7 11.75,7.97 13.49,10.52 24.45,19.1 9.07,7.09 16.85,12 24.94,18.61 17.41,14.21 31.26,27.28 49.78,41.68 49.1,38.15 144.98,134.25 181.45,175.67 8.85,10.04 9.64,13.79 19.54,24 8.8,9.03 13.01,11.95 21.11,22.44 38.86,50.24 83.51,96.68 121.92,148.1 13.83,18.5 24.45,31.02 37.99,49.11 13.98,18.68 24.82,34.67 38.53,52.91 51.4,68.42 100.28,138.95 144.93,212.2l33.84 53.26c12.75,19.86 22.85,34.96 35.36,56.08l49.5 81.16c6.95,11.67 12.81,19.13 18.65,29.25 159.01,276.05 343.24,538.05 568.92,763.74l92.16 86.39c94.65,94.13 251.66,195.92 363.32,263.81 108.6,66.02 248.93,127.09 372.17,163.49 116.84,34.51 244.46,68.82 367.25,76.97 56.5,3.76 107.04,13.18 165.63,12.91 35.89,-0.16 54.78,4.49 87.02,4.48l169.26 -9.51c285.95,-28.79 546.71,-134.15 779.41,-291.92 78.48,-53.22 158.25,-120.92 222.53,-191.2 0.6,-0.66 1.51,-1.58 2.11,-2.24l97.11 -107.59c14.82,-17.54 26.35,-33.55 39.92,-51.53 79.2,-104.97 141.58,-220.78 195.11,-340.56 139.46,-312.1 163.03,-693.83 80.76,-1022.83 -31.16,-124.56 -84.93,-277.09 -151.48,-388.56 -43.27,-72.5 -85.59,-144.58 -136.76,-211.64l-44.97 -55.19c-61.12,-72.32 -126.92,-136.14 -198.02,-198.29 -89.23,-78 -191.81,-144.64 -297.06,-199.42 -206.11,-107.29 -476.86,-182.86 -709.92,-182.86 -2.72,-32.53 -34.33,-103.6 -47.24,-135.66 -78.09,-193.97 -192.75,-379.43 -337.18,-529.48 -10.34,-10.74 -11.85,-15.69 -21.64,-26.27 -29.12,-31.48 -64.1,-59.05 -93.72,-89.19 -86.5,-88.01 -218.96,-172.06 -320.79,-232.29 -343.09,-202.94 -780.31,-271.39 -1170.98,-207.8 -109.84,17.87 -213.09,49.18 -317.21,83.46 -19.51,6.41 -42.55,14.61 -60.32,22.42 -17.74,7.79 -36.48,14.33 -55.25,23.14 -19.63,9.2 -37.26,16.41 -56.64,26.1 -105.64,52.76 -204.46,114.2 -298.81,184.61 -16.26,12.13 -27.91,21.97 -43.66,34.72 -15.83,12.82 -31.62,23.32 -45.51,37.23 -53.1,53.17 -116.5,100.48 -162.16,160.11l-35.97 42.43c-50.99,57.24 -93.71,122.07 -136.52,185.76l-32.06 50.68c-16.75,28.86 -39.33,77.33 -39.33,121.8z" />
            <path class="fil0"
                d="M7089.39 7005.27c0,-80.31 4.98,-187.78 24.47,-249.9 21.13,-67.32 71.71,-124.64 149.73,-124.64 59.4,0 95.77,-4.65 145.7,32.86 91.78,68.97 80.76,274.12 80.76,389.58 0,105.29 -8.83,238.59 -86.32,296.93 -29.98,22.56 -74.74,29.71 -118.37,29.71 -151.69,0 -178.23,-117.22 -190.99,-235.8 -2.42,-22.45 1.23,-45.67 -1.81,-67.87 -2.94,-21.49 -3.17,-43.12 -3.17,-70.87zm-492.12 801.33l479.05 0 0 -121.95c60.01,40.18 30.75,40.91 139.36,95.84 132.12,66.81 357.91,54.19 486.37,-10.13 222.2,-111.26 280.12,-306 280.12,-582.18l0 -365.83c0,-131 -19.28,-261.63 -58.41,-355.3 -39.11,-93.58 -105.78,-170.42 -197.02,-216.72 -95.32,-48.37 -146.05,-54.02 -244.73,-64.47 -111.66,-11.84 -241.11,16.69 -332.59,78.11 -22.83,15.31 -46.02,40.75 -60.03,44.49l0 -622.76 -492.12 0 0 2120.9z" />
            <path class="fil0"
                d="M11901.71 5698.76l0 2107.84 492.12 0 0 -474.71c0,-11.83 57.06,-67.67 66.47,-77.24l16.02 -18.82c2.25,-3.48 2.08,-1.48 4.6,-8.46 19.82,5.29 26.54,32 47.07,66.16 14.65,24.37 27.7,46.38 41.54,71.71l208.4 366.45c14.7,24.5 29.83,50.61 42.69,74.91l605.36 0c-4.23,-18.1 -61.17,-102.73 -72.29,-119.34 -26.66,-39.79 -49.68,-76.31 -74.94,-116.7 -94.66,-151.36 -204.17,-311.94 -300.49,-465.98l-153.28 -234.32 185.42 -210.88c44.06,-57.02 161.8,-175.61 204.69,-230.82 8.32,-10.7 8.61,-11.67 18.14,-21.05 15.74,-15.47 23.39,-27.57 39.29,-43.45l110.94 -124.23c21.89,-24.6 39.08,-40.25 16.38,-40.25l-557.44 0c-24.34,0 -40.09,28.77 -62.88,59.07 -19.13,25.43 -36.02,46.87 -55.3,70.98l-330.39 427.4 0 -1071.33 -479.06 0c-10.03,0 -13.06,3.02 -13.06,13.06z" />
            <path class="fil0"
                d="M9632.74 7423.35c-227.92,0 -203.35,-256.95 -30.49,-256.95l261.3 0c0,90.18 8.25,157.2 -65.21,213.51 -43.48,33.31 -89.68,43.44 -165.6,43.44zm-566.16 -1023.44l303.77 305.94c17.02,-11.75 25.96,-25.84 42.1,-38.46 17.81,-13.93 27.72,-23.08 48.91,-33.83 76.37,-38.69 113.19,-33.31 197.51,-33.31 116.98,0 204.68,53.79 204.68,169.85l0 65.32 -339.7 0c-213.26,0 -400.65,83.63 -490.72,275.76 -52.69,112.44 -50.75,308.78 7.25,425.48 35.61,71.66 50.5,95.6 105.67,151.27 160.47,161.92 530.83,189.06 694.73,26.21 11.57,-11.52 18.85,-24.95 35.84,-29.49l0 121.95 470.34 0c10.04,0 13.06,-3.03 13.06,-13.06l0 -1010.38c0,-345.4 -180.22,-530.74 -482.16,-580.47 -80.31,-13.22 -143.35,-20.53 -227.7,-20.53l-187.94 12.4c-30.56,5.3 -54.72,8.87 -83.89,16.29 -75.83,19.26 -145.25,48.98 -206.03,94.45 -30.76,23.01 -86.03,65.22 -105.72,94.61z" />
            <path class="fil0"
                d="M14236.01 7519.16c-82.34,0 -138.33,-3.74 -208.25,-48.71 -182.62,-117.45 -175,-351.97 -175,-565.35 0,-66.59 7.81,-134.22 17.34,-191.7 28.46,-171.41 148.04,-304.78 322.36,-304.78 89.73,0 136.03,6.83 210.45,50.85 21.33,12.61 46.87,32.91 62.89,50.34 98.84,107.64 109.9,305.66 109.9,451.91 0,200.13 -15.2,402.62 -168.02,502.66 -40.15,26.27 -107.53,54.78 -171.67,54.78zm-727.29 -570.5c0,254.27 19.91,447.87 165.41,640.27 185.76,245.64 597.25,303.56 862.39,169.77 183.62,-92.64 293.87,-233.51 345.84,-438.06 17.94,-70.63 33.48,-182.39 33.06,-258.73 -0.29,-53.82 4.42,-66.95 4.58,-95.79l-9.25 -187.03c-11.69,-156.59 -57.32,-310.37 -153.91,-434.01 -8.69,-11.12 -13.78,-14.16 -22.52,-25.4 -9.63,-12.4 -11.73,-14.69 -22.5,-25.39 -81.4,-80.94 -203.57,-149.72 -318.57,-173.56 -123.08,-25.5 -226.5,-29.55 -351.4,-2.06 -56.5,12.43 -99.44,28.47 -146.87,49.11l-61.42 34.38c-67.13,44.46 -100.87,66.64 -156.37,135.42 -123.42,152.92 -168.47,338.59 -168.47,611.08z" />
            <path class="fil0"
                d="M5669.65 7519.16c-113.09,0 -191.49,-19.77 -269.59,-100.59 -0.61,-0.65 -1.47,-1.61 -2.08,-2.26l-28.9 -36.45c-93.6,-142.72 -78.32,-342.97 -78.32,-513.95 0,-57.8 8.67,-126.46 20.04,-175.95 13.1,-57.15 29.41,-101.23 57.4,-142.91 46.51,-69.28 144,-138.43 257.9,-138.43 82.24,0 135.86,5.21 205.57,47.03 182.53,109.5 177.67,336.44 177.67,549.62 0,199.32 -24.45,368.35 -175,465.18 -38.18,24.56 -103.33,48.71 -164.69,48.71zm-722.94 -631.48c0,205.36 -2.84,430.52 100.36,609.52 187.73,325.67 578.13,406.46 921.29,264.07 15.56,-6.46 17.62,-9.64 30.89,-17.03 309.29,-172.26 354.13,-464.34 354.13,-804.3 0,-278.86 -47.62,-523.53 -265.05,-697.4 -39.26,-31.4 -76.34,-50.14 -122.52,-73.46 -177.23,-89.49 -446.39,-91.53 -624.3,-5.85 -81.9,39.45 -103.89,57.64 -168.99,109.74 -22.87,18.3 -30.72,32.17 -46.23,49.58 -31.72,35.59 -51.14,64.08 -76.48,106.42 -20.94,34.98 -44.1,87.56 -56.76,130.51 -27.61,93.63 -46.34,209.33 -46.34,328.2z" />
            <path class="fil0"
                d="M10521.16 6970.43c0,189.05 16.27,359.14 100.91,517.5 29.58,55.34 38.25,64.85 73.9,109.01 27.86,34.51 57.08,62.36 92.69,90.23 39.04,30.56 68.29,45.47 114.26,68.65 179.9,90.71 477.64,90.54 663.4,7.17 40.99,-18.39 124.21,-67.49 160.13,-101.16 9.89,-9.27 12.25,-12.7 22.85,-20.71 10.69,-8.07 14.09,-10.34 21.76,-21.79l-284.74 -290.13c-0.64,-0.63 -1.57,-1.51 -2.21,-2.15l-4.31 -4.39c-0.62,-0.65 -1.48,-1.62 -2.1,-2.26l-33.27 -32.05c-40.28,9.38 -65.64,91.46 -209.04,91.46 -279.04,0 -239.47,-485.42 -182.39,-626.61 13.53,-33.47 34.87,-59.31 61.66,-82.05 64.99,-55.22 178.58,-53.24 252.83,-7.02l53.82 41.99c8.8,7.41 9.44,9.83 18.77,16.07l332.06 -329.9c-28.13,-40.51 -117.29,-99.28 -158.05,-122.84 -16.01,-9.26 -30.22,-14.46 -47.59,-22.08 -163.2,-71.57 -364.73,-81.2 -539.34,-38.26 -38.6,9.5 -70.6,21.96 -107.24,36.49 -61.91,24.54 -126.22,66.6 -169.04,109.68 -25.41,25.56 -44.47,43.54 -67.59,71.76 -106.86,130.49 -162.13,342.29 -162.13,543.39z" />
        </g>
    </g>
</svg>