<svg xmlns="http://www.w3.org/2000/svg" width="33" height="32" viewBox="0 0 33 32" fill="none">
    <path d="M19.3154 22.0988C19.5907 22.2252 19.9008 22.2541 20.1946 22.1807C20.4885 22.1073 20.7486 21.936 20.9321 21.695L21.4052 21.0752C21.6535 20.7442 21.9755 20.4755 22.3456 20.2904C22.7157 20.1054 23.1238 20.009 23.5377 20.009H27.536C28.2429 20.009 28.9209 20.2898 29.4208 20.7897C29.9207 21.2896 30.2016 21.9676 30.2016 22.6746V26.6729C30.2016 27.3798 29.9207 28.0578 29.4208 28.5577C28.9209 29.0576 28.2429 29.3385 27.536 29.3385C21.1735 29.3385 15.0715 26.8109 10.5725 22.3119C6.0735 17.8129 3.54599 11.711 3.54599 5.34845C3.54599 4.6415 3.82682 3.9635 4.32671 3.46362C4.8266 2.96373 5.5046 2.68289 6.21155 2.68289H10.2099C10.9168 2.68289 11.5948 2.96373 12.0947 3.46362C12.5946 3.9635 12.8754 4.6415 12.8754 5.34845V9.34678C12.8754 9.7606 12.7791 10.1687 12.594 10.5389C12.409 10.909 12.1403 11.2309 11.8092 11.4792L11.1855 11.947C10.9408 12.1339 10.7683 12.3996 10.6974 12.6992C10.6265 12.9987 10.6614 13.3136 10.7963 13.5903C12.6178 17.29 15.6135 20.282 19.3154 22.0988Z" stroke="#000" stroke-width="2.66556" stroke-linecap="round" stroke-linejoin="round"/>
</svg>