<svg width="21" height="21" viewBox="0 0 21 21" fill="none" xmlns="http://www.w3.org/2000/svg">
    <path d="M5.92557 2.62653H3.42661C2.96657 2.62653 2.59363 2.99947 2.59363 3.45951V5.95847C2.59363 6.41852 2.96657 6.79146 3.42661 6.79146H5.92557C6.38562 6.79146 6.75856 6.41852 6.75856 5.95847V3.45951C6.75856 2.99947 6.38562 2.62653 5.92557 2.62653Z" stroke="black" stroke-width="1.66597" stroke-linecap="round" stroke-linejoin="round"/>
    <path d="M16.7543 2.62653H14.2553C13.7953 2.62653 13.4224 2.99947 13.4224 3.45951V5.95847C13.4224 6.41852 13.7953 6.79146 14.2553 6.79146H16.7543C17.2144 6.79146 17.5873 6.41852 17.5873 5.95847V3.45951C17.5873 2.99947 17.2144 2.62653 16.7543 2.62653Z" stroke="black" stroke-width="1.66597" stroke-linecap="round" stroke-linejoin="round"/>
    <path d="M5.92557 13.4554H3.42661C2.96657 13.4554 2.59363 13.8283 2.59363 14.2883V16.7873C2.59363 17.2473 2.96657 17.6203 3.42661 17.6203H5.92557C6.38562 17.6203 6.75856 17.2473 6.75856 16.7873V14.2883C6.75856 13.8283 6.38562 13.4554 5.92557 13.4554Z" stroke="black" stroke-width="1.66597" stroke-linecap="round" stroke-linejoin="round"/>
    <path d="M17.5873 13.4554H15.0883C14.6465 13.4554 14.2227 13.6309 13.9103 13.9433C13.5979 14.2557 13.4224 14.6795 13.4224 15.1213V17.6203" stroke="black" stroke-width="1.66597" stroke-linecap="round" stroke-linejoin="round"/>
    <path d="M17.5873 17.6203V17.6286" stroke="black" stroke-width="1.66597" stroke-linecap="round" stroke-linejoin="round"/>
    <path d="M10.0905 5.95847V8.45742C10.0905 8.89927 9.91495 9.32301 9.60252 9.63544C9.29009 9.94788 8.86634 10.1234 8.4245 10.1234H5.92554" stroke="black" stroke-width="1.66597" stroke-linecap="round" stroke-linejoin="round"/>
    <path d="M2.59363 10.1234H2.60196" stroke="black" stroke-width="1.66597" stroke-linecap="round" stroke-linejoin="round"/>
    <path d="M10.0905 2.62653H10.0988" stroke="black" stroke-width="1.66597" stroke-linecap="round" stroke-linejoin="round"/>
    <path d="M10.0905 13.4554V13.4637" stroke="black" stroke-width="1.66597" stroke-linecap="round" stroke-linejoin="round"/>
    <path d="M13.4224 10.1234H14.2557" stroke="black" stroke-width="1.66597" stroke-linecap="round" stroke-linejoin="round"/>
    <path d="M17.5873 10.1234V10.1317" stroke="black" stroke-width="1.66597" stroke-linecap="round" stroke-linejoin="round"/>
    <path d="M10.0905 17.6206V16.7873" stroke="black" stroke-width="1.66597" stroke-linecap="round" stroke-linejoin="round"/>
</svg>
