<svg width="21" height="21" viewBox="0 0 21 21" fill="none" xmlns="http://www.w3.org/2000/svg">
    <path d="M16.7477 11.6536C16.7477 15.8185 13.8323 17.901 10.367 19.1088C10.1856 19.1703 9.98847 19.1674 9.80893 19.1005C6.33537 17.901 3.41992 15.8185 3.41992 11.6536V5.82268C3.41992 5.60175 3.50768 5.38988 3.6639 5.23367C3.82011 5.07745 4.03199 4.98969 4.25291 4.98969C5.91888 4.98969 8.00135 3.99011 9.45074 2.72397C9.62722 2.5732 9.8517 2.49036 10.0838 2.49036C10.3159 2.49036 10.5404 2.5732 10.7169 2.72397C12.1746 3.99844 14.2487 4.98969 15.9147 4.98969C16.1356 4.98969 16.3475 5.07745 16.5037 5.23367C16.6599 5.38988 16.7477 5.60175 16.7477 5.82268V11.6536Z" stroke="#000" stroke-width="1.66597" stroke-linecap="round" stroke-linejoin="round"/>
</svg>
