<svg width="17" height="17" viewBox="0 0 17 17" fill="none" xmlns="http://www.w3.org/2000/svg">
    <path d="M11.3297 14.967V13.6342C11.3297 12.9272 11.0489 12.2492 10.549 11.7494C10.0491 11.2495 9.37108 10.9686 8.66413 10.9686H4.6658C3.95885 10.9686 3.28086 11.2495 2.78097 11.7494C2.28108 12.2492 2.00024 12.9272 2.00024 13.6342V14.967" stroke="#000" stroke-width="1.33278" stroke-linecap="round" stroke-linejoin="round"/>
    <path d="M11.3297 3.05725C11.9013 3.20544 12.4075 3.53923 12.7689 4.00623C13.1303 4.47324 13.3263 5.04701 13.3263 5.63751C13.3263 6.228 13.1303 6.80178 12.7689 7.26879C12.4075 7.73579 11.9013 8.06958 11.3297 8.21777" stroke="#000" stroke-width="1.33278" stroke-linecap="round" stroke-linejoin="round"/>
    <path d="M15.328 14.9669V13.6342C15.3276 13.0436 15.131 12.4698 14.7692 12.0031C14.4073 11.5363 13.9007 11.2029 13.3289 11.0552" stroke="#000" stroke-width="1.33278" stroke-linecap="round" stroke-linejoin="round"/>
    <path d="M6.66495 8.30304C8.13709 8.30304 9.3305 7.10963 9.3305 5.63748C9.3305 4.16533 8.13709 2.97192 6.66495 2.97192C5.1928 2.97192 3.99939 4.16533 3.99939 5.63748C3.99939 7.10963 5.1928 8.30304 6.66495 8.30304Z" stroke="#000" stroke-width="1.33278" stroke-linecap="round" stroke-linejoin="round"/>
</svg>
