<svg width="80" height="80" viewBox="0 0 80 80" fill="none" xmlns="http://www.w3.org/2000/svg">
<path d="M0 40C0 17.9086 17.9086 0 40 0C62.0914 0 80 17.9086 80 40C80 62.0914 62.0914 80 40 80C17.9086 80 0 62.0914 0 40Z" fill="#2F2F2F"/>
<path d="M56.2167 50L42.8833 26.6667C42.5926 26.1537 42.171 25.727 41.6615 25.4301C41.1521 25.1333 40.573 24.9769 39.9833 24.9769C39.3937 24.9769 38.8146 25.1333 38.3051 25.4301C37.7957 25.727 37.3741 26.1537 37.0833 26.6667L23.75 50C23.4561 50.509 23.3021 51.0865 23.3034 51.6742C23.3047 52.2619 23.4613 52.8388 23.7574 53.3464C24.0535 53.854 24.4786 54.2743 24.9895 54.5647C25.5004 54.8551 26.079 55.0053 26.6667 55H53.3333C53.9182 54.9994 54.4926 54.845 54.9988 54.5522C55.5051 54.2594 55.9254 53.8385 56.2175 53.3319C56.5097 52.8253 56.6634 52.2507 56.6633 51.6658C56.6631 51.081 56.5091 50.5065 56.2167 50Z" stroke="white" stroke-width="2.5" stroke-linecap="round" stroke-linejoin="round"/>
<path d="M40 35V41.6667" stroke="white" stroke-width="2.5" stroke-linecap="round" stroke-linejoin="round"/>
<path d="M40 48.3333H40.0167" stroke="white" stroke-width="2.5" stroke-linecap="round" stroke-linejoin="round"/>
</svg>
